<svg xmlns="http://www.w3.org/2000/svg" xmlns:xlink="http://www.w3.org/1999/xlink" viewBox="0 0 328.3 64.77"><defs><style>.cls-1{fill:url(#linear-gradient);}.cls-2{fill:#231f20;}.cls-3{fill:#7e911c;}</style><linearGradient id="linear-gradient" x1="322.29" y1="58.38" x2="316.83" y2="66.78" gradientUnits="userSpaceOnUse"><stop offset="0" stop-color="#fff"/><stop offset="1"/></linearGradient></defs><title>altus-logo-black</title><g id="Layer_2" data-name="Layer 2"><g id="Layer_1-2" data-name="Layer 1"><ellipse class="cls-1" cx="319.56" cy="62.58" rx="8.74" ry="1.85"/><path class="cls-2" d="M65.78,62.42q0,1.25-.72,1.25-3.09,0-7-.27-3.36-.27-5.74-.27-2.74,0-6.77.27-4.26.27-7.26.27-.72,0-.72-1.23t.54-1.23a15.21,15.21,0,0,0,5.74-1.06,2.88,2.88,0,0,0,1.75-2.73,13.07,13.07,0,0,0-.9-3.74l-5.11-15H21.19L16.07,52.56a14.17,14.17,0,0,0-1,4.32q0,4,7.26,4.32.54,0,.54,1.23t-.72,1.23q-2.69,0-6-.27-3.09-.27-5.51-.27-1.93,0-4.83.27t-5.19.27Q0,63.67,0,62.55t1-1.34a11.1,11.1,0,0,0,5.89-2.06q2.17-1.7,4.5-6.95L32.4.72A1.18,1.18,0,0,1,33.65,0Q34.73,0,35,.67L53.5,52.2a13.73,13.73,0,0,0,4.23,6.41,14.26,14.26,0,0,0,7.15,2.6Q65.78,61.3,65.78,62.42ZM38.61,35.8,30.75,13,22.27,35.8Z"/><path class="cls-2" d="M116.34,51a106.31,106.31,0,0,0-2.54,12.64q-13.16-.41-18.72-.41t-18.48.41q-.55,0-.55-1t.55-.93q4.16-.48,5.65-1.55T83.74,56V23.63a6.89,6.89,0,0,0-.6-3.39A4,4,0,0,0,81,18.69a20,20,0,0,0-4.43-.91q-.55,0-.55-.94t.55-.94q2.3,0,5.5.21t5.15.21q2.09,0,5.12-.21t5.46-.21q.55,0,.55.94t-.55.94a20,20,0,0,0-4.4.91,4,4,0,0,0-2.1,1.53,7.05,7.05,0,0,0-.58,3.4V57q0,4.06,4,4.06h6.8a11.36,11.36,0,0,0,7.14-2.25q2.92-2.25,5.77-8.4c.09-.18.31-.27.65-.27a1.45,1.45,0,0,1,.84.27A.77.77,0,0,1,116.34,51Z"/><path class="cls-2" d="M172.92,27.19q0,.65-1.24.65a.64.64,0,0,1-.69-.48q-1.48-4.84-4.22-6.85t-8.14-2H155.4a3.56,3.56,0,0,0-2.3.55,2.7,2.7,0,0,0-.62,2.06V56a6.78,6.78,0,0,0,.6,3.35,4,4,0,0,0,2.13,1.55,20.14,20.14,0,0,0,4.38.91q.55.07.55.93t-.55,1q-2.3,0-5.5-.21-3-.21-5.07-.21t-5.17.21q-3.19.21-5.5.21-.55,0-.55-1t.55-.93q4.16-.48,5.65-1.55T145.5,56V21.11a2.7,2.7,0,0,0-.62-2.06,3.63,3.63,0,0,0-2.34-.55h-2.68A16.32,16.32,0,0,0,131.08,21a11.36,11.36,0,0,0-5.15,6.37.72.72,0,0,1-.76.52q-1.17,0-1.17-.76,1.92-5.19,3.64-11.75,4.68,1,21.38,1,17.15,0,21.83-1Q171.34,19.81,172.92,27.19Z"/><path class="cls-2" d="M239.49,16.84q0,.94-.55.94-4.33.55-5.81,1.6t-1.48,4.24V45.18q0,9.18-4.43,14.39t-12.49,5.21q-9.2,0-14.34-5t-5.15-13.53V23.63a7.15,7.15,0,0,0-.57-3.35,3.9,3.9,0,0,0-2.08-1.56,19.22,19.22,0,0,0-4.43-.93q-.55,0-.55-.94t.55-.94q2.3,0,5.46.21t5.12.21q2.09,0,5.15-.21t5.5-.21q.55,0,.55.94t-.55.94a20,20,0,0,0-4.43.91,4,4,0,0,0-2.11,1.55,6.88,6.88,0,0,0-.6,3.39V45.32q0,8.46,3.19,12.41t10.41,4q13.57,0,13.57-17.19V23.63q0-3.2-1.53-4.28t-5.75-1.56q-.55,0-.55-.94t.55-.94q1.57,0,4.14.21t4.28.21q1.65,0,4.12-.21t4.26-.21Q239.49,15.89,239.49,16.84Z"/><path class="cls-2" d="M286.41,49.86q0,6.84-4.06,10.87t-11,4a30.05,30.05,0,0,1-7.33-1.1,25.94,25.94,0,0,0-6.36-1q-.21-5.84-.83-11.68,0-.55,1-.55a.82.82,0,0,1,.89.55q1.86,6.39,4.75,9t8.11,2.61a8.45,8.45,0,0,0,6.44-2.4,9.39,9.39,0,0,0,2.28-6.73,7.91,7.91,0,0,0-2-5.17q-2-2.39-8.48-6.17-7.45-4.29-9.75-7.28a10.61,10.61,0,0,1-2.3-6.63A12.44,12.44,0,0,1,262,18.73a14.8,14.8,0,0,1,10.51-3.86,27.55,27.55,0,0,1,5.54.65,26.31,26.31,0,0,0,5.06.58q.41,6,1.1,10.65,0,.55-.89.55t-1.06-.55q-1.14-5.15-3.44-7.42a8.71,8.71,0,0,0-6.38-2.27,8.32,8.32,0,0,0-6.14,2.27A8.24,8.24,0,0,0,264,25.44a7,7,0,0,0,1.91,4.65q1.91,2.22,8.29,5.93,7.54,4.4,9.89,7.35A10.21,10.21,0,0,1,286.41,49.86Z"/><ellipse class="cls-3" cx="317.16" cy="57.34" rx="8.46" ry="5.15" transform="translate(42.32 225.68) rotate(-41.74)"/></g></g></svg>