<?xml version="1.0" encoding="utf-8"?>
<!DOCTYPE svg PUBLIC "-//W3C//DTD SVG 1.1//EN" "http://www.w3.org/Graphics/SVG/1.1/DTD/svg11.dtd">
<svg xmlns="http://www.w3.org/2000/svg" xmlns:xlink="http://www.w3.org/1999/xlink" version="1.1" viewBox="0 0 512 512" enable-background="new 0 0 512 512" width="512px" height="512px">
  <g>
    <g>
      <rect width="20.9" x="115.3" y="146.5" height="20.9" fill="#000000"/>
      <rect width="20.9" x="188.2" y="146.5" height="20.9" fill="#000000"/>
      <rect width="20.9" x="261.2" y="146.5" height="20.9" fill="#000000"/>
      <path d="M490.6,204.9H386.3V21.4c0-6.3-4.2-10.4-10.4-10.4H21.4C15.2,11,11,15.2,11,21.4v271.1c0,6.3,4.2,10.4,10.4,10.4H84V355    c0,4.2,2.1,7.3,6.3,9.4c4.7,2.1,9.4,0,11.5-2.1l59.4-59.4h27.1v136.6c0,6.3,4.2,10.4,10.4,10.4h176.2l48,48    c7.6,7.1,17.7,1.1,17.7-8.3v-40.7h50c6.3,0,10.4-4.2,10.4-10.4V215.3C501,209.1,496.8,204.9,490.6,204.9z M157,282.1    c-3.1,0-5.2,1-7.3,3.1L104.8,330v-37.5c0-6.3-4.2-10.4-10.4-10.4H31.9V31.9h333.6v250.2H157z M480.1,429.1h-50    c-6.3,0-10.4,4.2-10.4,10.4v26.1l-33.4-33.4c-2.1-2.1-4.2-3.1-7.3-3.1H209.1V302.9h166.8c6.3,0,10.4-4.2,10.4-10.4v-66.7h93.8    V429.1z" fill="#000000"/>
    </g>
  </g>
</svg>
