<?xml version="1.0" encoding="iso-8859-1"?>
<!-- Generator: Adobe Illustrator 19.0.0, SVG Export Plug-In . SVG Version: 6.00 Build 0)  -->
<svg xmlns="http://www.w3.org/2000/svg" xmlns:xlink="http://www.w3.org/1999/xlink" version="1.1" id="Layer_1" x="0px" y="0px" viewBox="0 0 512 512" style="enable-background:new 0 0 512 512;" xml:space="preserve" width="512px" height="512px">
<g>
	<g>
		<g>
			<path d="M117.333,229.333c-38.293,0-74.133,18.773-96,50.133v-111.04c0-54.613,43.093-99.093,96-99.093     c5.867,0,10.667-4.8,10.667-10.667C128,52.8,123.2,48,117.333,48C52.587,48,0,101.973,0,168.427v178.24     C0,411.52,52.48,464,117.333,464s117.333-52.48,117.333-117.333S182.187,229.333,117.333,229.333z M117.333,442.667     c-53.013,0-96-42.987-96-96s42.987-96,96-96c53.013,0,96,42.987,96,96C213.227,399.68,170.347,442.56,117.333,442.667z" fill="#000000"/>
			<path d="M394.667,229.333c-38.293,0-74.133,18.773-96,50.133v-111.04c0-54.613,43.093-99.093,96-99.093     c5.867,0,10.667-4.8,10.667-10.667c0-5.867-4.8-10.667-10.667-10.667c-64.64,0-117.333,53.973-117.333,120.427v178.24     c0,64.853,52.48,117.333,117.333,117.333S512,411.52,512,346.667S459.52,229.333,394.667,229.333z M394.667,442.667     c-53.013,0-96-42.987-96-96s42.987-96,96-96s96,42.987,96,96C490.56,399.68,447.68,442.56,394.667,442.667z" fill="#000000"/>
		</g>
	</g>
</g>
<g>
</g>
<g>
</g>
<g>
</g>
<g>
</g>
<g>
</g>
<g>
</g>
<g>
</g>
<g>
</g>
<g>
</g>
<g>
</g>
<g>
</g>
<g>
</g>
<g>
</g>
<g>
</g>
<g>
</g>
</svg>
