<?xml version="1.0" encoding="utf-8"?>
<!DOCTYPE svg PUBLIC "-//W3C//DTD SVG 1.1//EN" "http://www.w3.org/Graphics/SVG/1.1/DTD/svg11.dtd">
<svg xmlns="http://www.w3.org/2000/svg" xmlns:xlink="http://www.w3.org/1999/xlink" version="1.1" viewBox="0 0 512 512" enable-background="new 0 0 512 512" width="512px" height="512px">
  <g>
    <path d="m352.2,375.7c3.9-24.8 5.9-50.1 5.9-75.9 0.1-172.6-102.1-286.7-102.1-286.7s-100.1,103.2-100.1,286.7c0,25.4 1.8,50.3 5.4,74.7-39.1,30.2-61.7,74.8-61.7,124.4h20.9c2.5-59.2 35.2-93.5 44.8-101.6 4.1,20.8 18.8,68.2 18.8,68.2h61.5v33.4h20.9v-33.4h61.5c0,0 16-46.7 20.2-67 11,9.9 41.1,43.8 43.4,100.4h20.9c-0.1-49-22.1-93-60.3-123.2zm-95.2-330.3c16.5,21.2 30.6,45 42.3,70.9h-84.9c11.8-26 26-49.9 42.6-70.9zm57.4,399.3h-48v-62.6h-20.9v62.6h-46.9c-15.6-45.9-22.9-94.9-21.9-144.9 0-57.8 10.2-113.5 29-162.6h102.3c19,49.5 29.3,105.1 29.3,162.6 0,51.1-7.3,99-22.9,144.9z" fill="#000000"/>
  </g>
</svg>
