<?xml version="1.0" encoding="iso-8859-1"?>
<!-- Generator: Adobe Illustrator 19.0.0, SVG Export Plug-In . SVG Version: 6.00 Build 0)  -->
<svg xmlns="http://www.w3.org/2000/svg" xmlns:xlink="http://www.w3.org/1999/xlink" version="1.1" id="Layer_1" x="0px" y="0px" viewBox="0 0 512 512" style="enable-background:new 0 0 512 512;" xml:space="preserve" width="512px" height="512px">
<g>
	<g>
		<path d="M396.8,486.4h-384c-7.074,0-12.8,5.726-12.8,12.8c0,7.074,5.726,12.8,12.8,12.8h384c7.074,0,12.8-5.726,12.8-12.8    C409.6,492.126,403.874,486.4,396.8,486.4z" fill="#000000"/>
	</g>
</g>
<g>
	<g>
		<path d="M422.4,204.8c-4.395,0-8.644,0.503-12.8,1.263V204.8c0-14.14-11.46-25.6-25.6-25.6H25.6C11.46,179.2,0,190.66,0,204.8    v76.8c0,72.482,37.265,138.103,99.678,175.556c3.977,2.381,8.533,3.644,13.167,3.644h183.91c4.642,0,9.19-1.263,13.167-3.644    c33.434-20.062,59.341-48.358,76.484-81.314C397.44,380.868,409.481,384,422.4,384c49.408,0,89.6-40.192,89.6-89.6    S471.808,204.8,422.4,204.8z M384,281.6c0,65.306-35.046,122.283-87.245,153.6h-183.91C60.646,403.883,25.6,346.906,25.6,281.6    c0-27.529,0-76.8,0-76.8H384C384,204.8,384,254.071,384,281.6z M422.4,358.4c-9.199,0-17.886-2.048-25.788-5.538    c8.303-22.409,12.988-46.37,12.988-71.262v-49.604c4.122-0.956,8.371-1.596,12.8-1.596c35.345,0,64,28.655,64,64    C486.4,329.745,457.745,358.4,422.4,358.4z" fill="#000000"/>
	</g>
</g>
<g>
	<g>
		<path d="M194.654,0h-28.134c12.348,22.135,2.569,41.685-14.558,70.221c-14.31,23.842-31.113,51.994-20.745,83.379h28.134    c-12.348-22.135-2.569-41.685,14.558-70.221C188.22,59.529,205.022,31.377,194.654,0z" fill="#000000"/>
	</g>
</g>
<g>
	<g>
		<path d="M250.061,0h-28.134c12.348,22.135,2.569,41.685-14.558,70.221c-14.31,23.851-31.112,52.002-20.736,83.379h28.134    c-12.348-22.135-2.569-41.685,14.558-70.221C243.635,59.529,260.437,31.377,250.061,0z" fill="#000000"/>
	</g>
</g>
<g>
	<g>
		<path d="M306.227,0h-28.134c12.348,22.135,2.568,41.685-14.558,70.221c-14.31,23.851-31.121,52.002-20.745,83.379h28.134    c-12.348-22.135-2.569-41.685,14.558-70.221C299.793,59.529,316.595,31.377,306.227,0z" fill="#000000"/>
	</g>
</g>
<g>
</g>
<g>
</g>
<g>
</g>
<g>
</g>
<g>
</g>
<g>
</g>
<g>
</g>
<g>
</g>
<g>
</g>
<g>
</g>
<g>
</g>
<g>
</g>
<g>
</g>
<g>
</g>
<g>
</g>
</svg>
